<?xml version="1.0" standalone="no"?>
<!DOCTYPE svg PUBLIC "-//W3C//DTD SVG 20010904//EN"
 "http://www.w3.org/TR/2001/REC-SVG-20010904/DTD/svg10.dtd">
<svg version="1.0" xmlns="http://www.w3.org/2000/svg"
 width="1000.000000pt" height="791.000000pt" viewBox="0 0 1000.000000 791.000000"
 preserveAspectRatio="xMidYMid meet">

<g transform="translate(0.000000,791.000000) scale(0.100000,-0.100000)"
fill="#000000" stroke="none">
<path d="M4905 5220 c2 -31 15 -37 15 -7 0 15 -4 27 -8 27 -5 0 -8 -9 -7 -20z"/>
<path d="M4873 5090 c0 -25 2 -35 4 -22 2 12 2 32 0 45 -2 12 -4 2 -4 -23z"/>
<path d="M3393 5099 c-39 -11 -49 -25 -32 -45 22 -26 112 -1 106 29 -5 27 -23
31 -74 16z"/>
<path d="M3520 5050 l-35 -7 37 -2 c20 0 40 4 43 9 7 11 7 11 -45 0z"/>
<path d="M4880 4865 c0 -43 4 -75 10 -75 6 0 10 32 10 75 0 43 -4 75 -10 75
-6 0 -10 -32 -10 -75z"/>
<path d="M4940 4880 c0 -5 5 -10 11 -10 5 0 7 5 4 10 -3 6 -8 10 -11 10 -2 0
-4 -4 -4 -10z"/>
<path d="M7800 4745 c-44 -54 -52 -214 -16 -348 14 -56 19 -90 13 -94 -13 -8
-27 12 -78 111 -36 68 -43 90 -43 141 0 72 15 120 49 158 30 32 24 35 -15 7
-35 -25 -80 -113 -80 -154 1 -50 23 -96 89 -188 57 -79 63 -93 65 -143 2 -30
5 -58 9 -61 3 -3 22 7 41 23 29 23 36 35 36 64 0 19 6 41 13 48 10 11 10 13 0
7 -19 -10 -17 -4 21 61 55 98 69 146 63 207 -8 78 -51 151 -99 169 -14 5 -13
0 5 -31 33 -57 36 -201 6 -318 -12 -49 -22 -106 -21 -126 2 -28 -1 -38 -13
-38 -13 0 -15 32 -16 238 -1 130 0 247 1 260 2 25 -12 29 -30 7z m20 -475 c0
-20 -5 -30 -15 -30 -16 0 -19 17 -9 44 10 26 24 18 24 -14z"/>
<path d="M4880 4710 c0 -22 5 -40 10 -40 6 0 10 18 10 40 0 22 -4 40 -10 40
-5 0 -10 -18 -10 -40z"/>
<path d="M4940 4665 l0 -75 -55 0 c-53 0 -55 -1 -55 -27 0 -28 1 -28 55 -25
l55 4 0 -91 c0 -54 4 -91 10 -91 6 0 10 37 10 90 l0 90 35 0 c31 0 35 3 35 25
0 22 -4 25 -35 25 l-35 0 0 75 c0 43 -4 75 -10 75 -6 0 -10 -32 -10 -75z"/>
<path d="M7930 4726 c0 -2 8 -10 18 -17 15 -13 16 -12 3 4 -13 16 -21 21 -21
13z"/>
<path d="M5360 4696 c0 -16 -6 -26 -15 -26 -10 0 -15 -11 -15 -35 0 -19 -4
-35 -10 -35 -5 0 -10 -4 -10 -10 0 -6 27 -10 60 -10 33 0 60 4 60 10 0 6 -4
10 -10 10 -5 0 -10 16 -10 35 0 24 -5 35 -15 35 -8 0 -15 9 -15 19 0 11 -4 23
-10 26 -6 4 -10 -5 -10 -19z"/>
<path d="M5365 4430 l-70 -6 73 -2 c42 -1 72 2 72 8 0 6 -1 9 -2 8 -2 -1 -34
-4 -73 -8z"/>
<path d="M7959 4423 c-13 -16 -12 -17 4 -4 9 7 17 15 17 17 0 8 -8 3 -21 -13z"/>
<path d="M5275 4392 c-16 -2 -34 -10 -38 -18 -5 -8 -12 -12 -18 -9 -5 4 -9 -1
-9 -9 0 -14 22 -16 160 -16 136 0 160 2 160 15 0 8 -6 15 -14 15 -8 0 -16 5
-18 11 -3 10 -163 18 -223 11z"/>
<path d="M4270 4104 c0 -173 3 -243 12 -252 14 -14 48 -16 48 -2 0 5 7 7 17 3
14 -6 15 0 9 48 -10 78 -76 433 -82 438 -2 2 -4 -104 -4 -235z"/>
<path d="M5495 4320 c-3 -5 1 -10 10 -10 9 0 13 5 10 10 -3 6 -8 10 -10 10 -2
0 -7 -4 -10 -10z"/>
<path d="M4648 4258 c-3 -18 -19 -109 -37 -202 -17 -93 -31 -175 -31 -182 0
-10 13 -14 40 -14 l40 0 0 215 c0 118 -2 215 -4 215 -2 0 -6 -15 -8 -32z"/>
<path d="M4873 4230 c0 -36 2 -50 4 -32 2 17 2 47 0 65 -2 17 -4 3 -4 -33z"/>
<path d="M5225 4280 c-3 -5 1 -10 9 -10 9 0 16 5 16 10 0 6 -4 10 -9 10 -6 0
-13 -4 -16 -10z"/>
<path d="M4940 4230 c0 -22 5 -40 10 -40 6 0 10 18 10 40 0 22 -4 40 -10 40
-5 0 -10 -18 -10 -40z"/>
<path d="M4981 4224 c0 -11 3 -14 6 -6 3 7 2 16 -1 19 -3 4 -6 -2 -5 -13z"/>
<path d="M5265 4200 c4 -6 11 -8 16 -5 14 9 11 15 -7 15 -8 0 -12 -5 -9 -10z"/>
<path d="M5455 4200 c4 -6 11 -8 16 -5 14 9 11 15 -7 15 -8 0 -12 -5 -9 -10z"/>
<path d="M3290 4185 c-1 -5 -2 -13 -1 -17 0 -4 -7 -24 -15 -44 -11 -26 -13
-39 -5 -42 7 -2 11 -52 11 -149 0 -111 3 -144 13 -140 9 3 11 39 9 145 -2 101
1 142 9 142 7 0 9 8 4 23 -4 12 -10 38 -15 57 -4 19 -9 31 -10 25z"/>
<path d="M3920 4185 c-1 -5 -2 -13 -1 -17 2 -15 -31 -88 -40 -88 -5 0 -9 -22
-9 -49 0 -34 -4 -51 -15 -55 -12 -4 -15 -25 -15 -96 0 -73 3 -90 15 -90 13 0
15 -25 15 -164 0 -106 -4 -167 -11 -171 -6 -4 -10 -19 -9 -33 6 -80 0 -112
-19 -112 -13 0 -20 10 -25 31 -11 56 -7 107 9 117 13 7 15 33 13 167 -2 116
-6 159 -15 163 -10 3 -13 -34 -13 -163 0 -158 -1 -167 -20 -172 -19 -5 -20
-14 -20 -194 l0 -189 -150 0 -150 0 0 190 c0 183 -1 190 -20 190 -19 0 -20 7
-20 171 0 149 -2 170 -16 167 -8 -2 -15 -6 -15 -10 1 -5 1 -80 1 -169 0 -104
3 -158 10 -154 6 4 10 -7 10 -24 0 -26 -4 -31 -25 -31 -21 0 -25 5 -25 30 0
17 -4 30 -10 30 -6 0 -10 62 -10 165 0 139 -2 165 -15 165 -13 0 -15 -59 -14
-457 0 -284 4 -464 11 -476 5 -10 11 -103 14 -205 2 -103 6 -235 8 -294 l5
-108 -55 0 -54 0 -2 78 c0 42 0 84 0 92 1 8 5 105 8 215 5 153 9 206 21 224 8
13 11 21 5 17 -7 -4 -9 147 -6 455 3 413 2 460 -12 457 -14 -3 -16 -25 -15
-160 1 -99 -2 -159 -9 -163 -6 -4 -10 -97 -10 -268 0 -144 -4 -268 -8 -275 -5
-7 -16 -10 -25 -6 -15 5 -17 33 -17 269 0 226 2 264 15 269 23 8 18 331 -5
331 -13 0 -15 -26 -18 -167 -2 -140 -5 -168 -17 -168 -15 0 -15 -1 -21 -345
-1 -117 -1 -115 -29 -115 -15 0 -25 -6 -25 -14 0 -10 -13 -16 -37 -19 -37 -4
-37 -4 2 -2 22 2 50 6 63 10 17 6 22 3 22 -9 0 -10 -9 -16 -25 -16 -14 0 -25
-4 -25 -10 0 -5 11 -10 24 -10 28 0 32 -14 30 -90 -3 -92 -2 -90 -29 -90 -14
0 -25 -4 -25 -10 0 -5 11 -10 24 -10 15 0 26 -7 29 -20 7 -27 -3 -61 -17 -59
-23 3 -36 -1 -36 -11 0 -5 12 -10 26 -10 16 0 24 -5 21 -12 -2 -7 -12 -13 -22
-13 -10 0 -20 -6 -23 -13 -2 -7 6 -12 21 -12 16 0 26 -7 30 -20 9 -33 -3 -60
-25 -57 -12 1 -23 -4 -25 -10 -3 -8 5 -13 20 -13 33 0 36 -14 28 -163 -1 -13
-8 -17 -23 -15 -14 2 -24 -3 -26 -13 -2 -13 3 -15 23 -12 15 3 25 1 25 -6 0
-7 -28 -11 -80 -11 l-80 0 0 426 c0 336 -3 425 -12 421 -10 -3 -13 -83 -15
-351 l-2 -346 -47 -55 c-40 -47 -43 -55 -26 -55 11 0 23 8 26 18 4 9 15 28 25
41 l18 23 -3 -23 c-1 -13 -3 -41 -3 -61 -1 -34 -4 -38 -26 -38 -14 0 -25 5
-25 10 0 7 -178 10 -515 10 -337 0 -515 -3 -515 -10 0 -6 -27 -10 -60 -10
l-60 0 0 444 c0 385 -2 445 -15 450 -13 5 -15 -12 -15 -110 0 -91 -68 -725
-83 -777 -2 -7 -109 -11 -187 -7 -5 0 -10 14 -10 30 0 24 -4 30 -22 30 -13 1
-134 2 -270 3 l-247 2 -3 -35 c-3 -34 -4 -35 -40 -32 -20 1 -39 -2 -43 -8 -4
-7 1297 -10 4164 -10 2508 0 4171 4 4171 9 0 5 -26 8 -57 7 -32 -1 -64 0 -71
2 -11 4 -13 37 -11 151 2 81 -1 153 -5 160 -13 20 1 25 60 22 55 -3 84 9 84
34 0 10 -17 12 -75 8 l-74 -6 8 29 c7 28 10 29 74 32 53 2 67 6 67 18 0 9 9
18 20 21 11 3 20 12 20 19 0 8 9 14 20 14 10 0 24 9 30 20 13 23 19 23 -95 5
-122 -20 -419 -29 -535 -17 -105 11 -110 9 -110 -45 0 -33 0 -33 49 -33 49 0
61 -9 61 -47 0 -12 -11 -14 -55 -11 -52 3 -55 2 -55 -20 0 -22 3 -23 51 -19
40 4 52 2 57 -11 3 -9 1 -17 -6 -20 -6 -2 -9 -9 -6 -16 3 -8 6 -75 7 -150 l2
-136 -50 0 c-27 1 -365 0 -750 -1 -385 -1 -727 -1 -760 -1 l-61 2 -17 68 c-15
59 -17 127 -17 590 0 341 -3 522 -10 522 -7 0 -10 -203 -10 -588 0 -324 -2
-591 -4 -593 -2 -2 -32 -2 -65 -1 l-61 4 0 79 0 79 -97 65 -98 65 -5 -117 c-4
-84 -8 -114 -15 -103 -5 8 -21 16 -35 17 -69 7 -126 14 -138 18 -27 10 -218
-27 -242 -46 -25 -18 -22 -19 218 -19 235 0 242 -1 242 -20 0 -20 -7 -20 -372
-20 l-373 0 -2 60 c-1 60 -1 60 28 60 25 0 28 3 19 18 -5 9 -16 34 -24 55 -13
31 -20 37 -45 37 l-31 0 0 60 0 60 31 0 c34 0 69 15 69 30 0 6 -6 10 -12 10
-7 0 -30 5 -50 11 l-38 10 0 59 c0 56 2 60 23 60 23 0 47 17 47 32 0 4 -12 9
-27 9 -24 2 -25 2 -5 6 31 6 29 33 -3 33 -16 0 -25 -6 -25 -15 0 -23 -19 -18
-30 8 -7 17 -9 18 -9 5 -1 -14 -10 -18 -46 -18 -45 0 -45 0 -45 35 0 35 0 35
44 35 34 0 46 -4 49 -17 3 -11 5 -7 6 10 1 19 8 30 25 37 13 5 27 13 30 18 8
13 -63 32 -118 32 -44 0 -46 1 -46 30 0 29 2 30 44 30 38 0 45 -3 49 -22 4
-21 4 -21 4 2 1 52 0 52 48 44 37 -5 45 -3 45 9 0 10 -18 20 -50 28 -50 13
-51 14 -48 49 2 27 7 35 22 35 10 0 22 10 27 22 7 18 3 22 -24 27 -82 15 -136
78 -138 161 l-2 50 -6 -55 c-4 -30 -12 -65 -19 -77 -19 -34 -62 -63 -93 -63
-16 0 -29 -4 -29 -10 0 -6 -55 -10 -145 -10 -122 0 -145 -2 -145 -15 0 -13 24
-15 160 -15 136 0 160 -2 160 -15 0 -11 12 -15 45 -15 41 0 45 -2 45 -24 0
-22 -4 -23 -82 -30 -45 -4 -84 -9 -87 -12 -2 -2 4 -11 15 -19 14 -11 52 -14
157 -15 89 0 137 -4 137 -11 0 -7 -40 -9 -120 -7 -125 3 -126 3 -121 -39 1
-10 -35 -13 -154 -13 -120 0 -155 -3 -155 -13 0 -10 31 -13 135 -12 78 0 129
-3 120 -8 -19 -10 -11 -25 20 -37 20 -8 23 -16 23 -54 -1 -45 -2 -46 -42 -58
-23 -6 -43 -13 -45 -15 -10 -7 24 -33 45 -33 21 0 24 -5 24 -40 0 -33 -3 -40
-19 -40 -11 0 -23 -4 -26 -10 -4 -6 5 -10 19 -10 14 0 26 -4 26 -10 0 -11 -29
-14 -117 -10 -61 2 -63 1 -63 -23 0 -24 3 -25 90 -31 l90 -8 0 -29 c0 -25 -4
-29 -27 -30 l-28 -1 25 -7 c15 -4 26 -15 28 -29 3 -18 -1 -22 -26 -22 -23 0
-32 -6 -42 -30 -11 -28 -16 -30 -61 -30 -46 0 -49 -2 -49 -25 0 -24 2 -25 65
-25 l65 0 0 -60 c0 -53 -2 -60 -20 -60 -16 0 -20 7 -20 30 0 27 -3 30 -30 30
-27 0 -30 -3 -30 -30 l0 -30 -340 0 -340 0 0 50 0 50 -85 0 -85 0 0 -50 0 -50
-45 0 c-25 0 -48 -1 -52 -2 -3 -2 -6 71 -5 161 l1 163 -29 -4 c-16 -2 -27 -1
-25 2 3 4 -9 7 -25 6 -35 -1 -39 -12 -9 -21 19 -6 20 -14 18 -108 -2 -56 -4
-124 -7 -152 l-4 -50 -424 3 -425 2 3 228 3 227 72 145 71 145 48 -102 c26
-57 49 -101 51 -99 2 2 -16 48 -41 101 -25 54 -46 103 -46 109 0 7 24 11 68
11 l67 0 5 -67 5 -66 30 25 c17 14 24 22 17 18 -10 -5 -12 1 -10 26 3 26 10
35 26 37 25 4 31 -25 10 -47 -10 -10 -5 -9 16 1 22 12 30 23 32 49 6 61 22
541 23 670 1 119 0 127 -19 132 -19 5 -21 12 -18 97 1 50 6 94 10 96 5 3 8 25
8 50 0 24 5 44 11 44 7 0 10 -29 8 -82 -3 -170 0 -208 18 -208 14 0 16 14 10
145 -6 125 -4 145 9 145 11 0 12 4 4 19 -5 11 -14 37 -19 58 -5 21 -10 34 -11
28z m-510 -889 c0 -74 -2 -84 -19 -89 -11 -3 -22 -2 -25 1 -3 3 -6 43 -6 89 0
82 0 83 25 83 25 0 25 -1 25 -84z m441 -53 c1 -39 1 -134 0 -190 -1 -27 -5
-33 -23 -33 -22 0 -23 3 -25 122 -1 67 0 125 3 130 3 4 14 8 25 8 15 0 19 -7
20 -37z m1899 -43 c0 -6 -42 -10 -105 -10 -63 0 -105 4 -105 10 0 6 42 10 105
10 63 0 105 -4 105 -10z m-2340 -200 c0 -102 1 -232 1 -290 0 -58 0 -185 0
-282 l-1 -178 -25 0 -25 0 0 283 c-1 463 1 640 6 648 2 4 13 7 24 6 19 -1 20
-9 20 -187z m2340 155 c0 -22 -4 -25 -40 -25 -36 0 -40 3 -40 25 0 23 4 25 40
25 36 0 40 -2 40 -25z m-2000 -115 c0 -11 -101 -16 -212 -12 -135 6 -85 22 67
22 85 0 145 -4 145 -10z m1870 -20 c0 -29 -2 -30 -45 -30 -43 0 -45 1 -45 30
0 29 2 30 45 30 43 0 45 -1 45 -30z m-2025 -10 c3 -4 -26 -73 -64 -152 l-69
-143 -1 150 -1 150 65 2 c35 1 67 -2 70 -7z m2175 -80 c0 -6 -48 -10 -125 -10
-77 0 -125 4 -125 10 0 6 48 10 125 10 77 0 125 -4 125 -10z m-160 -55 c0 -35
0 -35 -45 -35 -45 0 -45 0 -45 35 0 35 0 35 45 35 45 0 45 0 45 -35z m-2390
-37 c-1 -29 -1 -122 0 -207 0 -84 -1 -156 -4 -158 -3 -3 0 -16 5 -30 8 -21 7
-24 -7 -19 -8 3 -22 6 -30 6 -12 0 -14 38 -14 230 l0 230 26 0 c24 0 25 -3 24
-52z m2570 -73 c0 -13 -23 -15 -145 -15 -122 0 -145 2 -145 15 0 13 23 15 145
15 122 0 145 -2 145 -15z m-180 -65 l0 -40 -55 0 -55 0 0 40 0 40 55 0 55 0 0
-40z m180 0 l0 -40 -55 0 -55 0 0 40 0 40 55 0 55 0 0 -40z m2960 -60 l0 -30
-64 0 c-68 0 -81 7 -71 40 5 17 15 20 71 20 l64 0 0 -30z m188 -2 l3 -28 -65
0 -66 0 0 30 0 31 63 -3 c59 -3 62 -4 65 -30z m-3148 -53 c0 -13 -20 -15 -142
-13 -102 2 -143 6 -146 16 -3 9 30 12 142 12 124 0 146 -2 146 -15z m3133 -4
c16 -1 26 -31 10 -31 -5 0 -6 -67 -3 -150 l5 -150 -147 0 c-82 0 -151 0 -155
0 -5 0 -8 67 -9 148 0 82 -4 154 -8 160 -4 7 -5 15 -3 20 4 5 219 8 310 3z
m-3313 -61 l0 -40 -55 0 -55 0 0 40 0 40 55 0 55 0 0 -40z m180 0 l0 -40 -55
0 -55 0 0 40 0 40 55 0 55 0 0 -40z m-1410 -14 c0 -9 -10 -13 -25 -12 -33 1
-33 26 0 26 15 0 25 -6 25 -14z m-12 -65 c11 -7 10 -9 -3 -14 -11 -5 -14 -3
-9 5 5 8 2 9 -9 5 -10 -3 -17 -2 -17 3 0 12 20 13 38 1z m-1150 -111 l4 -80
-26 0 c-26 0 -26 1 -26 74 0 72 4 83 35 85 6 1 11 -34 13 -79z m2337 25 c0
-11 -69 -19 -92 -11 -8 3 -11 11 -8 16 8 14 100 9 100 -5z m158 0 c-3 -11
-107 -19 -130 -11 -8 3 -11 11 -8 16 9 14 141 9 138 -5z m122 0 c0 -11 -69
-19 -92 -11 -8 3 -11 11 -8 16 8 14 100 9 100 -5z"/>
<path d="M6600 4139 c-25 -9 -25 -10 -22 -121 1 -62 4 -127 5 -144 l2 -31 93
62 92 62 -60 42 c-60 42 -60 43 -60 92 0 52 -4 55 -50 38z"/>
<path d="M5210 4128 c0 -10 40 -14 160 -16 139 -3 160 -1 160 13 0 13 -22 15
-160 15 -121 0 -160 -3 -160 -12z"/>
<path d="M4940 4075 c0 -8 5 -15 10 -15 6 0 10 7 10 15 0 8 -4 15 -10 15 -5 0
-10 -7 -10 -15z"/>
<path d="M3237 4073 c-4 -3 -7 -26 -7 -50 0 -23 -4 -43 -10 -43 -6 0 -10 -38
-10 -95 0 -73 3 -95 13 -95 11 0 15 33 20 142 4 78 5 143 4 145 -2 2 -7 0 -10
-4z"/>
<path d="M3330 4032 c0 -27 3 -52 7 -55 3 -4 7 -46 7 -94 1 -59 5 -88 14 -90
9 -4 12 19 12 91 0 57 -4 96 -10 96 -5 0 -10 23 -10 50 0 28 -4 50 -10 50 -5
0 -10 -22 -10 -48z"/>
<path d="M3968 4075 c-4 -5 -5 -70 -1 -146 6 -130 5 -139 -12 -139 -17 0 -18
-13 -12 -247 4 -137 7 -330 7 -430 l0 -182 31 -17 c17 -8 28 -10 24 -4 -4 6
-7 133 -7 281 -1 148 -5 269 -9 269 -5 0 -9 74 -9 165 0 103 4 165 10 165 6 0
10 38 10 95 0 53 -4 95 -9 95 -6 0 -11 23 -13 51 -2 28 -6 48 -10 44z"/>
<path d="M5228 4053 c7 -3 16 -2 19 1 4 3 -2 6 -13 5 -11 0 -14 -3 -6 -6z"/>
<path d="M5498 4053 c7 -3 16 -2 19 1 4 3 -2 6 -13 5 -11 0 -14 -3 -6 -6z"/>
<path d="M4860 3831 l0 -180 -52 -3 c-46 -3 -53 -6 -56 -25 -3 -18 2 -23 17
-23 13 0 21 -7 21 -17 1 -17 1 -17 11 0 5 9 21 17 34 17 23 0 25 -4 25 -50 0
-64 18 -66 22 -2 l3 47 45 0 45 0 3 -153 c3 -201 22 -194 22 9 0 87 4 149 9
149 6 0 12 -21 14 -47 l3 -48 2 48 2 47 40 0 c34 0 40 3 40 21 0 12 -8 23 -19
26 -11 3 -22 12 -24 22 -4 14 -5 14 -6 -1 -2 -35 -30 -19 -34 20 l-4 37 -1
-37 c-3 -71 -22 -39 -22 36 0 41 -4 78 -10 81 -6 4 -10 -23 -10 -73 l0 -80
-46 -4 c-25 -2 -47 -1 -50 1 -2 2 -4 85 -4 183 0 112 -4 178 -10 178 -6 0 -10
-66 -10 -179z"/>
<path d="M4940 3922 c0 -34 4 -62 8 -62 10 0 10 106 0 116 -5 4 -8 -20 -8 -54z"/>
<path d="M6675 3874 c-44 -30 -81 -57 -82 -62 -3 -6 21 -23 148 -105 l29 -19
0 121 c0 67 -3 121 -7 120 -5 0 -44 -25 -88 -55z"/>
<path d="M5228 3912 c-10 -2 -18 -8 -18 -13 0 -5 68 -9 160 -9 91 0 160 4 160
9 0 5 -12 12 -27 15 -30 6 -247 5 -275 -2z"/>
<path d="M4370 3845 c0 -12 18 -15 100 -15 93 0 100 -1 100 -20 0 -17 7 -20
45 -20 38 0 45 3 45 20 0 17 -7 20 -45 20 -33 0 -45 4 -45 15 0 12 -18 15
-100 15 -82 0 -100 -3 -100 -15z"/>
<path d="M4307 3832 l-38 -3 3 -57 3 -57 52 0 c58 0 59 1 47 77 -7 41 -13 45
-67 40z"/>
<path d="M5225 3830 c-3 -5 1 -10 9 -10 9 0 16 5 16 10 0 6 -4 10 -9 10 -6 0
-13 -4 -16 -10z"/>
<path d="M5265 3830 c-3 -5 1 -10 10 -10 9 0 13 5 10 10 -3 6 -8 10 -10 10 -2
0 -7 -4 -10 -10z"/>
<path d="M4793 3760 c0 -25 2 -35 4 -22 2 12 2 32 0 45 -2 12 -4 2 -4 -23z"/>
<path d="M5450 3790 c0 -5 7 -10 16 -10 8 0 12 5 9 10 -3 6 -10 10 -16 10 -5
0 -9 -4 -9 -10z"/>
<path d="M4020 3620 c0 -144 2 -170 15 -170 13 0 15 26 15 170 0 144 -2 170
-15 170 -13 0 -15 -26 -15 -170z"/>
<path d="M6580 3654 l0 -126 23 14 c12 9 55 37 95 63 41 26 70 51 65 55 -8 7
-146 100 -170 114 -10 6 -13 -21 -13 -120z"/>
<path d="M4560 3740 c0 -17 7 -20 50 -20 43 0 50 3 50 20 0 17 -7 20 -50 20
-43 0 -50 -3 -50 -20z"/>
<path d="M4270 3665 c0 -14 3 -25 8 -26 4 0 16 -2 27 -4 11 -2 23 1 27 8 6 9
8 9 8 0 0 -12 49 -3 50 10 1 36 0 37 -60 37 -57 0 -60 -1 -60 -25z"/>
<path d="M4555 3680 c-2 -3 -6 -26 -10 -52 l-7 -48 61 0 61 0 0 53 0 52 -51 0
c-28 0 -52 -2 -54 -5z"/>
<path d="M5210 3675 c0 -13 24 -15 160 -15 136 0 160 2 160 15 0 13 -24 15
-160 15 -136 0 -160 -2 -160 -15z"/>
<path d="M4270 3595 c0 -25 1 -26 63 -23 56 3 62 5 65 26 3 21 0 22 -62 22
-64 0 -66 -1 -66 -25z"/>
<path d="M6677 3559 c-49 -33 -85 -65 -80 -69 24 -21 165 -111 169 -107 3 2 3
57 2 121 l-3 117 -88 -62z"/>
<path d="M5310 3601 c0 -4 27 -9 60 -10 36 -1 60 3 60 9 0 6 -25 10 -60 10
-33 0 -60 -4 -60 -9z"/>
<path d="M5450 3600 c0 -5 4 -10 9 -10 6 0 13 5 16 10 3 6 -1 10 -9 10 -9 0
-16 -4 -16 -10z"/>
<path d="M4410 3565 c0 -12 -14 -15 -70 -15 l-70 0 0 -58 0 -58 35 4 c19 2 48
-1 64 -6 41 -14 52 2 45 65 -5 40 -3 51 10 56 9 4 16 3 16 -2 0 -4 10 -7 23
-5 12 1 32 3 45 3 12 1 22 7 22 16 0 12 -13 15 -60 15 -47 0 -60 -3 -60 -15z"/>
<path d="M4593 3543 c-47 -3 -63 -8 -63 -18 0 -12 15 -15 65 -15 58 0 65 2 65
20 0 11 -1 19 -2 18 -2 -1 -31 -3 -65 -5z"/>
<path d="M5930 3468 c0 -48 10 -45 17 6 3 22 0 36 -6 36 -6 0 -11 -18 -11 -42z"/>
<path d="M6061 3494 c0 -11 3 -14 6 -6 3 7 2 16 -1 19 -3 4 -6 -2 -5 -13z"/>
<path d="M5325 3489 c-19 -4 -3 -7 45 -7 76 0 84 4 20 10 -19 2 -48 0 -65 -3z"/>
<path d="M4531 3470 c-5 -3 -11 -26 -14 -52 l-7 -48 75 0 75 0 0 53 0 52 -61
0 c-33 0 -64 -2 -68 -5z"/>
<path d="M5248 3462 c-21 -2 -38 -7 -38 -12 0 -5 72 -10 160 -12 119 -2 160 0
160 9 0 12 -195 22 -282 15z"/>
<path d="M6450 3409 c-47 -32 -86 -63 -88 -68 -2 -7 170 -131 183 -131 3 0 5
59 5 130 0 72 -3 130 -7 129 -5 0 -46 -27 -93 -60z"/>
<path d="M6575 3340 c0 -71 1 -130 3 -130 2 0 45 29 97 64 l95 65 -28 19 c-50
35 -163 112 -165 112 -1 0 -2 -58 -2 -130z"/>
<path d="M4050 3443 c0 -5 0 -137 0 -294 0 -229 2 -291 14 -314 11 -21 13 -53
9 -143 -5 -86 -3 -113 5 -108 9 5 12 122 12 437 0 422 0 429 -20 429 -11 0
-20 -3 -20 -7z"/>
<path d="M4860 3390 c0 -27 5 -50 10 -50 6 0 10 23 10 50 0 28 -4 50 -10 50
-5 0 -10 -22 -10 -50z"/>
<path d="M4270 3382 c0 -22 3 -23 78 -20 69 3 77 5 77 23 0 18 -7 20 -77 20
-74 0 -78 -1 -78 -23z"/>
<path d="M5498 3373 c7 -3 16 -2 19 1 4 3 -2 6 -13 5 -11 0 -14 -3 -6 -6z"/>
<path d="M4832 3330 c0 -14 2 -19 5 -12 2 6 2 18 0 25 -3 6 -5 1 -5 -13z"/>
<path d="M5450 3340 c0 -5 5 -10 10 -10 6 0 10 5 10 10 0 6 -4 10 -10 10 -5 0
-10 -4 -10 -10z"/>
<path d="M5930 3340 c0 -5 5 -10 10 -10 6 0 10 5 10 10 0 6 -4 10 -10 10 -5 0
-10 -4 -10 -10z"/>
<path d="M4270 3280 l0 -60 85 0 c82 0 85 1 85 23 0 19 5 23 30 22 22 0 30 -5
30 -17 0 -16 10 -18 80 -18 l80 0 0 53 0 52 -80 -3 c-44 -2 -79 -7 -79 -10 3
-21 -4 -27 -31 -27 -24 0 -32 5 -37 23 -5 20 -11 22 -84 22 l-79 0 0 -60z"/>
<path d="M6360 3185 c0 -63 2 -115 5 -115 2 0 43 26 90 57 72 48 83 59 68 67
-10 5 -51 31 -90 58 l-73 49 0 -116z"/>
<path d="M6677 3246 c-42 -29 -80 -55 -83 -58 -4 -5 118 -95 164 -122 9 -6 12
20 12 113 0 67 -3 121 -7 120 -5 0 -43 -24 -86 -53z"/>
<path d="M4980 3199 c0 -31 4 -48 10 -44 6 3 10 26 10 51 0 24 -4 44 -10 44
-5 0 -10 -23 -10 -51z"/>
<path d="M4791 3018 c-1 -146 3 -228 9 -228 12 0 12 329 0 405 -5 33 -8 -28
-9 -177z"/>
<path d="M6200 3212 c0 -16 9 -19 65 -21 60 -2 65 0 65 18 0 19 -6 21 -65 21
-56 0 -65 -2 -65 -18z"/>
<path d="M8296 3155 c-4 -33 -9 -77 -12 -97 -5 -34 -3 -38 15 -38 23 0 25 20
12 135 l-7 60 -8 -60z"/>
<path d="M4270 3175 l0 -26 88 3 c79 3 87 5 87 23 0 18 -8 20 -87 23 l-88 3 0
-26z"/>
<path d="M4490 3175 c0 -12 16 -15 85 -15 69 0 85 3 85 15 0 12 -16 15 -85 15
-69 0 -85 -3 -85 -15z"/>
<path d="M5531 3154 c0 -11 3 -14 6 -6 3 7 2 16 -1 19 -3 4 -6 -2 -5 -13z"/>
<path d="M5022 3140 c0 -14 2 -19 5 -12 2 6 2 18 0 25 -3 6 -5 1 -5 -13z"/>
<path d="M5260 3150 c0 -5 7 -10 15 -10 8 0 15 5 15 10 0 6 -7 10 -15 10 -8 0
-15 -4 -15 -10z"/>
<path d="M5450 3150 c0 -5 5 -10 10 -10 6 0 10 5 10 10 0 6 -4 10 -10 10 -5 0
-10 -4 -10 -10z"/>
<path d="M5490 3150 c0 -5 5 -10 10 -10 6 0 10 5 10 10 0 6 -4 10 -10 10 -5 0
-10 -4 -10 -10z"/>
<path d="M6453 3096 c-51 -34 -93 -63 -93 -66 0 -3 42 -33 93 -68 l92 -63 3
66 c2 36 2 94 0 128 l-3 64 -92 -61z"/>
<path d="M6570 3031 c0 -72 2 -131 5 -131 3 0 49 29 101 64 l96 64 -88 59
c-49 33 -95 63 -101 67 -10 6 -13 -22 -13 -123z"/>
<path d="M4980 3116 c0 -14 5 -26 10 -26 6 0 10 9 10 19 0 11 -4 23 -10 26 -6
4 -10 -5 -10 -19z"/>
<path d="M4270 3105 c0 -25 1 -25 90 -25 89 0 90 0 90 25 0 25 -1 25 -90 25
-89 0 -90 0 -90 -25z"/>
<path d="M4484 3077 c-1 -23 -3 -70 -4 -103 -1 -34 -6 -68 -11 -75 -7 -11 -9
-10 -9 4 0 16 -9 17 -92 15 -77 -3 -93 -6 -96 -20 -3 -13 10 -17 74 -23 60 -6
78 -5 85 6 5 8 9 10 9 4 0 -6 43 -10 110 -10 l110 0 0 123 0 122 -87 0 -88 0
-1 -43z"/>
<path d="M2320 2944 c0 -101 3 -153 10 -149 6 4 10 67 10 156 0 93 -4 149 -10
149 -6 0 -10 -59 -10 -156z"/>
<path d="M6140 3085 c0 -9 9 -15 25 -15 16 0 25 6 25 15 0 9 -9 15 -25 15 -16
0 -25 -6 -25 -15z"/>
<path d="M2982 3078 c3 -7 17 -12 33 -12 16 0 30 5 33 12 2 8 -9 12 -33 12
-24 0 -35 -4 -33 -12z"/>
<path d="M2091 3054 c0 -11 3 -14 6 -6 3 7 2 16 -1 19 -3 4 -6 -2 -5 -13z"/>
<path d="M1933 3053 c9 -2 25 -2 35 0 9 3 1 5 -18 5 -19 0 -27 -2 -17 -5z"/>
<path d="M3073 3053 c9 -2 23 -2 30 0 6 3 -1 5 -18 5 -16 0 -22 -2 -12 -5z"/>
<path d="M4270 3000 l0 -60 95 0 96 0 -3 58 -3 57 -92 3 -93 3 0 -61z"/>
<path d="M2553 3034 c-19 -14 -16 -16 30 -19 16 -1 27 3 27 10 0 19 -37 25
-57 9z"/>
<path d="M4912 3030 c0 -14 2 -19 5 -12 2 6 2 18 0 25 -3 6 -5 1 -5 -13z"/>
<path d="M1740 3031 c0 -12 28 -18 58 -13 37 7 25 22 -18 22 -22 0 -40 -4 -40
-9z"/>
<path d="M2010 3018 c0 -14 3 -18 8 -12 4 7 18 11 31 10 13 0 26 5 28 12 3 8
-7 12 -31 12 -31 0 -36 -3 -36 -22z"/>
<path d="M2370 3028 c0 -8 11 -13 27 -12 40 1 44 18 6 22 -22 2 -33 -1 -33
-10z"/>
<path d="M2630 3028 c0 -8 14 -13 35 -13 21 0 35 5 35 13 0 7 -14 12 -35 12
-21 0 -35 -5 -35 -12z"/>
<path d="M2091 3004 c0 -11 3 -14 6 -6 3 7 2 16 -1 19 -3 4 -6 -2 -5 -13z"/>
<path d="M1948 3003 c6 -2 18 -2 25 0 6 3 1 5 -13 5 -14 0 -19 -2 -12 -5z"/>
<path d="M6674 2937 l-91 -63 93 -62 94 -62 0 125 c0 69 -1 125 -2 125 -2 0
-44 -29 -94 -63z"/>
<path d="M2460 2981 c0 -10 40 -22 52 -15 18 11 6 24 -22 24 -16 0 -30 -4 -30
-9z"/>
<path d="M6360 2875 c0 -94 -3 -115 -15 -115 -24 0 -55 -42 -54 -74 l1 -31 10
28 c8 23 15 27 48 27 45 0 45 -1 55 -59 6 -33 4 -42 -5 -36 -8 5 -11 3 -8 -6
2 -7 19 -17 36 -21 18 -5 39 -20 48 -33 15 -23 17 -23 40 -8 l25 16 -66 44
c-36 24 -65 48 -65 53 0 16 7 12 70 -30 32 -22 61 -40 64 -40 4 0 6 59 6 130
0 72 -2 130 -5 130 -3 0 -39 -22 -80 -50 -71 -48 -95 -59 -95 -42 0 4 37 31
82 61 l82 54 -27 21 c-14 11 -54 38 -87 59 l-60 37 0 -115z"/>
<path d="M2091 2954 c0 -11 3 -14 6 -6 3 7 2 16 -1 19 -3 4 -6 -2 -5 -13z"/>
<path d="M1853 2953 c15 -2 37 -2 50 0 12 2 0 4 -28 4 -27 0 -38 -2 -22 -4z"/>
<path d="M4721 2934 c0 -11 3 -14 6 -6 3 7 2 16 -1 19 -3 4 -6 -2 -5 -13z"/>
<path d="M5050 2830 l0 -120 -65 0 -65 0 -2 48 -1 47 -6 -45 -6 -45 -140 -6
c-77 -4 -173 -7 -213 -8 l-72 -1 2 -90 2 -90 88 0 88 0 0 69 0 69 63 -1 62 -2
3 -72 c4 -96 22 -94 22 2 l0 75 120 0 120 0 0 -50 c0 -64 18 -66 22 -2 l3 47
53 0 c50 0 52 1 52 28 0 24 -3 27 -35 27 l-35 0 0 71 c0 44 -4 68 -10 64 -5
-3 -10 -35 -10 -71 0 -36 -4 -64 -10 -64 -6 0 -10 47 -10 120 0 73 -4 120 -10
120 -6 0 -10 -47 -10 -120z"/>
<path d="M1750 2930 c0 -5 16 -10 35 -10 19 0 35 5 35 10 0 6 -16 10 -35 10
-19 0 -35 -4 -35 -10z"/>
<path d="M2365 2930 c-4 -6 10 -10 34 -10 23 0 41 5 41 10 0 6 -15 10 -34 10
-19 0 -38 -4 -41 -10z"/>
<path d="M2630 2930 c0 -5 16 -10 35 -10 19 0 35 5 35 10 0 6 -16 10 -35 10
-19 0 -35 -4 -35 -10z"/>
<path d="M5888 2933 c7 -3 16 -2 19 1 4 3 -2 6 -13 5 -11 0 -14 -3 -6 -6z"/>
<path d="M2091 2904 c0 -11 3 -14 6 -6 3 7 2 16 -1 19 -3 4 -6 -2 -5 -13z"/>
<path d="M1838 2903 c6 -2 18 -2 25 0 6 3 1 5 -13 5 -14 0 -19 -2 -12 -5z"/>
<path d="M1898 2903 c7 -3 16 -2 19 1 4 3 -2 6 -13 5 -11 0 -14 -3 -6 -6z"/>
<path d="M2018 2903 c12 -2 32 -2 45 0 12 2 2 4 -23 4 -25 0 -35 -2 -22 -4z"/>
<path d="M2548 2903 c12 -2 32 -2 45 0 12 2 2 4 -23 4 -25 0 -35 -2 -22 -4z"/>
<path d="M2712 2880 c0 -14 2 -19 5 -12 2 6 2 18 0 25 -3 6 -5 1 -5 -13z"/>
<path d="M5975 2890 c3 -5 8 -10 11 -10 2 0 4 5 4 10 0 6 -5 10 -11 10 -5 0
-7 -4 -4 -10z"/>
<path d="M1740 2880 c0 -5 18 -10 40 -10 22 0 40 5 40 10 0 6 -18 10 -40 10
-22 0 -40 -4 -40 -10z"/>
<path d="M2462 2879 c2 -6 7 -10 11 -10 4 1 16 1 27 1 11 0 20 5 20 10 0 6
-14 10 -31 10 -17 0 -29 -5 -27 -11z"/>
<path d="M2977 2877 c-3 -9 6 -11 34 -9 22 2 39 8 39 13 0 14 -67 11 -73 -4z"/>
<path d="M7710 2851 c-38 -20 -63 -46 -73 -73 -6 -17 6 -18 159 -18 l166 0
-19 32 c-40 69 -158 98 -233 59z"/>
<path d="M1858 2853 c12 -2 30 -2 40 0 9 3 -1 5 -23 4 -22 0 -30 -2 -17 -4z"/>
<path d="M1943 2853 c15 -2 37 -2 50 0 12 2 0 4 -28 4 -27 0 -38 -2 -22 -4z"/>
<path d="M2383 2853 c15 -2 37 -2 50 0 12 2 0 4 -28 4 -27 0 -38 -2 -22 -4z"/>
<path d="M2618 2853 c6 -2 18 -2 25 0 6 3 1 5 -13 5 -14 0 -19 -2 -12 -5z"/>
<path d="M2668 2853 c7 -3 16 -2 19 1 4 3 -2 6 -13 5 -11 0 -14 -3 -6 -6z"/>
<path d="M3038 2853 c7 -3 16 -2 19 1 4 3 -2 6 -13 5 -11 0 -14 -3 -6 -6z"/>
<path d="M4350 2849 c0 -5 -18 -9 -40 -9 -33 0 -40 -3 -40 -19 0 -16 9 -20 56
-23 64 -3 69 -1 71 28 1 16 -5 23 -23 27 -13 2 -24 0 -24 -4z"/>
<path d="M5892 2835 c0 -16 2 -22 5 -12 2 9 2 23 0 30 -3 6 -5 -1 -5 -18z"/>
<path d="M6140 2845 c0 -9 9 -15 25 -15 16 0 25 6 25 15 0 9 -9 15 -25 15 -16
0 -25 -6 -25 -15z"/>
<path d="M1110 2835 c0 -8 -40 -42 -90 -75 -49 -33 -90 -65 -90 -70 0 -23 48
-30 213 -30 156 0 176 2 191 18 15 18 12 22 -79 82 -52 35 -95 70 -95 77 0 7
-11 13 -25 13 -15 0 -25 -6 -25 -15z"/>
<path d="M2460 2830 c0 -10 10 -15 30 -15 20 0 30 5 30 15 0 10 -10 15 -30 15
-20 0 -30 -5 -30 -15z"/>
<path d="M6570 2720 c0 -72 4 -130 9 -128 17 6 191 123 190 128 0 3 -32 25
-71 50 -39 25 -84 53 -100 63 l-28 19 0 -132z"/>
<path d="M2010 2830 c0 -5 16 -10 35 -10 19 0 35 5 35 10 0 6 -16 10 -35 10
-19 0 -35 -4 -35 -10z"/>
<path d="M2540 2831 c0 -5 16 -11 35 -13 24 -3 35 0 35 9 0 8 -13 13 -35 13
-19 0 -35 -4 -35 -9z"/>
<path d="M4480 2825 c0 -12 17 -15 90 -15 73 0 90 3 90 15 0 12 -17 15 -90 15
-73 0 -90 -3 -90 -15z"/>
<path d="M5240 2810 c0 -5 18 -10 40 -10 22 0 40 5 40 10 0 6 -18 10 -40 10
-22 0 -40 -4 -40 -10z"/>
<path d="M6010 2795 c0 -14 5 -25 10 -25 6 0 10 11 10 25 0 14 -4 25 -10 25
-5 0 -10 -11 -10 -25z"/>
<path d="M1863 2803 c9 -2 25 -2 35 0 9 3 1 5 -18 5 -19 0 -27 -2 -17 -5z"/>
<path d="M1938 2803 c12 -2 32 -2 45 0 12 2 2 4 -23 4 -25 0 -35 -2 -22 -4z"/>
<path d="M3023 2803 c9 -2 23 -2 30 0 6 3 -1 5 -18 5 -16 0 -22 -2 -12 -5z"/>
<path d="M4417 2790 c3 -11 7 -20 9 -20 2 0 4 9 4 20 0 11 -4 20 -9 20 -5 0
-7 -9 -4 -20z"/>
<path d="M7030 2797 c0 -20 9 -25 31 -20 28 8 24 33 -6 33 -14 0 -25 -6 -25
-13z"/>
<path d="M4275 2772 c-14 -36 -6 -42 58 -42 63 0 64 0 64 28 0 26 -2 27 -58
28 -41 0 -60 -4 -64 -14z"/>
<path d="M8342 2779 c3 -8 15 -19 28 -26 12 -6 27 -17 32 -25 6 -9 7 -3 3 17
-8 36 -4 32 -39 41 -22 5 -28 4 -24 -7z"/>
<path d="M2093 2740 c0 -25 2 -35 4 -22 2 12 2 32 0 45 -2 12 -4 2 -4 -23z"/>
<path d="M4480 2752 c0 -15 12 -18 90 -20 85 -3 90 -2 90 18 0 19 -6 20 -90
20 -79 0 -90 -2 -90 -18z"/>
<path d="M2007 2741 c4 -16 13 -21 40 -21 23 0 33 4 30 13 -2 6 -14 11 -26 9
-12 -2 -28 2 -36 8 -11 9 -12 7 -8 -9z"/>
<path d="M3003 2753 c9 -2 25 -2 35 0 9 3 1 5 -18 5 -19 0 -27 -2 -17 -5z"/>
<path d="M1840 2734 c0 -9 11 -14 30 -14 17 0 30 5 30 10 0 6 -3 11 -7 11 -38
7 -53 5 -53 -7z"/>
<path d="M2563 2742 c-36 -5 -27 -22 12 -22 19 0 35 4 35 9 0 12 -20 18 -47
13z"/>
<path d="M2663 2743 c-44 -6 -42 -23 2 -23 24 0 35 5 35 15 0 8 -1 14 -2 13
-2 0 -18 -3 -35 -5z"/>
<path d="M1745 2730 c3 -5 22 -10 41 -10 19 0 34 5 34 10 0 6 -18 10 -41 10
-24 0 -38 -4 -34 -10z"/>
<path d="M5250 2730 c0 -5 9 -10 20 -10 11 0 20 5 20 10 0 6 -9 10 -20 10 -11
0 -20 -4 -20 -10z"/>
<path d="M4380 2715 c0 -5 -24 -10 -53 -10 l-52 0 -3 -57 c-3 -64 -6 -62 73
-58 22 1 42 3 44 5 8 9 9 100 1 114 -5 9 -10 12 -10 6z"/>
<path d="M7562 2708 c-20 -20 -14 -28 23 -28 37 0 49 22 19 34 -22 8 -28 8
-42 -6z"/>
<path d="M7974 2706 c-26 -19 -14 -28 32 -24 36 3 37 4 20 21 -21 21 -27 21
-52 3z"/>
<path d="M1933 2703 c15 -2 37 -2 50 0 12 2 0 4 -28 4 -27 0 -38 -2 -22 -4z"/>
<path d="M2627 2689 c7 -25 73 -28 73 -3 0 9 -6 14 -12 11 -7 -2 -25 -1 -39 3
-23 7 -26 5 -22 -11z"/>
<path d="M1840 2685 c0 -10 10 -15 30 -15 18 0 30 5 30 13 0 7 -13 14 -30 15
-21 2 -30 -2 -30 -13z"/>
<path d="M3013 2693 c-44 -6 -42 -23 2 -23 24 0 35 5 35 15 0 8 -1 14 -2 13
-2 0 -18 -3 -35 -5z"/>
<path d="M6672 2625 l-92 -62 92 -61 93 -62 3 66 c2 35 2 91 0 123 l-3 58 -93
-62z"/>
<path d="M1793 2653 c9 -2 23 -2 30 0 6 3 -1 5 -18 5 -16 0 -22 -2 -12 -5z"/>
<path d="M1933 2653 c15 -2 37 -2 50 0 12 2 0 4 -28 4 -27 0 -38 -2 -22 -4z"/>
<path d="M2578 2653 c6 -2 18 -2 25 0 6 3 1 5 -13 5 -14 0 -19 -2 -12 -5z"/>
<path d="M5282 2635 c0 -16 2 -22 5 -12 2 9 2 23 0 30 -3 6 -5 -1 -5 -18z"/>
<path d="M7492 2644 c-34 -24 -28 -44 13 -44 32 0 35 2 35 30 0 34 -14 38 -48
14z"/>
<path d="M8048 2643 c-8 -32 3 -43 43 -43 46 0 49 11 13 39 -33 26 -50 27 -56
4z"/>
<path d="M2010 2633 c0 -8 13 -13 35 -13 32 0 52 19 23 21 -7 0 -23 2 -35 3
-14 2 -23 -3 -23 -11z"/>
<path d="M4907 2615 c-4 -8 -2 -17 3 -20 6 -4 10 3 10 14 0 25 -6 27 -13 6z"/>
<path d="M6305 2620 c-3 -5 -1 -10 4 -10 6 0 11 5 11 10 0 6 -2 10 -4 10 -3 0
-8 -4 -11 -10z"/>
<path d="M7030 2620 c0 -5 5 -10 10 -10 6 0 10 5 10 10 0 6 -4 10 -10 10 -5 0
-10 -4 -10 -10z"/>
<path d="M7075 2610 c-18 -20 -17 -20 42 -20 57 0 73 8 73 36 0 2 -22 4 -48 4
-36 0 -54 -5 -67 -20z"/>
<path d="M1928 2603 c7 -3 16 -2 19 1 4 3 -2 6 -13 5 -11 0 -14 -3 -6 -6z"/>
<path d="M2712 2590 c0 -14 2 -19 5 -12 2 6 2 18 0 25 -3 6 -5 1 -5 -13z"/>
<path d="M5130 2590 c0 -19 3 -21 12 -12 9 9 9 15 0 24 -9 9 -12 7 -12 -12z"/>
<path d="M7678 2603 c7 -3 16 -2 19 1 4 3 -2 6 -13 5 -11 0 -14 -3 -6 -6z"/>
<path d="M918 2572 c-32 -15 -58 -33 -58 -40 0 -7 16 -20 35 -28 42 -17 434
-20 483 -3 52 18 47 36 -18 69 -59 30 -60 30 -222 29 -155 -1 -166 -2 -220
-27z"/>
<path d="M2010 2584 c0 -8 5 -12 10 -9 6 3 10 10 10 16 0 5 -4 9 -10 9 -5 0
-10 -7 -10 -16z"/>
<path d="M5920 2580 c0 -11 7 -20 15 -20 8 0 15 9 15 20 0 11 -7 20 -15 20 -8
0 -15 -9 -15 -20z"/>
<path d="M6110 2580 c0 -11 7 -20 15 -20 8 0 15 9 15 20 0 11 -7 20 -15 20 -8
0 -15 -9 -15 -20z"/>
<path d="M6200 2579 c0 -18 2 -19 15 -9 8 7 15 16 15 21 0 5 -7 9 -15 9 -9 0
-15 -9 -15 -21z"/>
<path d="M1750 2580 c0 -5 16 -10 35 -10 19 0 35 5 35 10 0 6 -16 10 -35 10
-19 0 -35 -4 -35 -10z"/>
<path d="M1853 2553 c15 -2 37 -2 50 0 12 2 0 4 -28 4 -27 0 -38 -2 -22 -4z"/>
<path d="M2985 2542 c-13 -14 -2 -22 30 -22 19 0 35 5 35 10 0 6 -3 10 -7 11
-5 0 -18 2 -31 3 -12 2 -24 0 -27 -2z"/>
<path d="M4982 2520 c0 -19 2 -27 5 -17 2 9 2 25 0 35 -3 9 -5 1 -5 -18z"/>
<path d="M5820 2530 c0 -5 7 -10 15 -10 8 0 15 5 15 10 0 6 -7 10 -15 10 -8 0
-15 -4 -15 -10z"/>
<path d="M6000 2530 c0 -5 9 -10 20 -10 11 0 20 5 20 10 0 6 -9 10 -20 10 -11
0 -20 -4 -20 -10z"/>
<path d="M6520 2522 c-22 -18 -22 -19 -6 -73 28 -93 36 -93 36 4 0 48 -2 87
-4 87 -2 0 -14 -8 -26 -18z"/>
<path d="M8104 2513 c-17 -17 -16 -18 20 -21 46 -4 58 5 32 24 -25 18 -31 18
-52 -3z"/>
<path d="M7040 2500 c0 -16 7 -20 30 -20 23 0 30 4 30 20 0 16 -7 20 -30 20
-23 0 -30 -4 -30 -20z"/>
<path d="M7239 2518 c-5 -17 -6 -38 -2 -38 12 0 43 22 43 30 0 8 -38 15 -41 8z"/>
<path d="M7470 2506 c0 -9 5 -16 10 -16 6 0 10 4 10 9 0 6 -4 13 -10 16 -5 3
-10 -1 -10 -9z"/>
<path d="M1838 2503 c6 -2 18 -2 25 0 6 3 1 5 -13 5 -14 0 -19 -2 -12 -5z"/>
<path d="M5050 2450 c0 -33 4 -60 10 -60 6 0 10 27 10 60 0 33 -4 60 -10 60
-6 0 -10 -27 -10 -60z"/>
<path d="M6140 2498 c0 -5 16 -8 35 -8 19 0 35 3 35 8 0 4 -16 7 -35 7 -19 0
-35 -3 -35 -7z"/>
<path d="M1762 2492 c-12 -2 -20 -8 -17 -13 8 -12 75 -12 75 0 0 11 -28 18
-58 13z"/>
<path d="M4484 2468 c3 -13 6 -38 6 -55 l0 -33 85 0 85 0 0 55 0 55 -91 0
c-90 0 -91 0 -85 -22z"/>
<path d="M6268 2436 c-7 -39 -4 -55 8 -44 3 3 4 23 2 44 l-3 39 -7 -39z"/>
<path d="M1758 2453 c6 -2 18 -2 25 0 6 3 1 5 -13 5 -14 0 -19 -2 -12 -5z"/>
<path d="M3008 2453 c7 -3 16 -2 19 1 4 3 -2 6 -13 5 -11 0 -14 -3 -6 -6z"/>
<path d="M4833 2395 c0 -38 2 -53 4 -32 2 20 2 52 0 70 -2 17 -4 1 -4 -38z"/>
<path d="M5238 2453 c12 -2 30 -2 40 0 9 3 -1 5 -23 4 -22 0 -30 -2 -17 -4z"/>
<path d="M863 2427 c-29 -12 -53 -25 -53 -28 0 -3 6 -14 14 -25 14 -18 31 -19
304 -22 l290 -3 28 24 27 24 -57 26 c-58 27 -61 27 -280 26 -204 0 -225 -2
-273 -22z"/>
<path d="M5992 2443 c-26 -5 -20 -23 9 -23 10 0 19 7 19 15 0 8 -1 14 -2 14
-2 -1 -13 -4 -26 -6z"/>
<path d="M4790 2400 c0 -22 5 -40 10 -40 6 0 10 18 10 40 0 22 -4 40 -10 40
-5 0 -10 -18 -10 -40z"/>
<path d="M4906 2422 c-2 -4 -1 -14 5 -22 7 -12 9 -10 9 8 0 23 -5 28 -14 14z"/>
<path d="M2299 2392 c-43 -27 -79 -69 -79 -92 0 -6 52 -10 146 -10 l146 0 -20
33 c-22 36 -105 97 -131 97 -9 0 -37 -13 -62 -28z"/>
<path d="M5282 2395 c0 -16 2 -22 5 -12 2 9 2 23 0 30 -3 6 -5 -1 -5 -18z"/>
<path d="M7040 2405 c0 -11 11 -15 39 -15 22 0 44 6 51 15 11 13 6 15 -39 15
-39 0 -51 -4 -51 -15z"/>
<path d="M1951 2389 c-7 -12 -19 -39 -26 -60 l-14 -39 117 0 117 1 -45 40
c-41 38 -108 79 -127 79 -5 0 -14 -10 -22 -21z"/>
<path d="M2700 2391 c-19 -11 -55 -37 -80 -60 l-45 -40 117 -1 117 0 -14 39
c-17 49 -37 81 -50 81 -5 -1 -26 -9 -45 -19z"/>
<path d="M5130 2390 c0 -19 3 -21 12 -12 9 9 9 15 0 24 -9 9 -12 7 -12 -12z"/>
<path d="M7195 2400 c-3 -5 1 -10 9 -10 9 0 16 5 16 10 0 6 -4 10 -9 10 -6 0
-13 -4 -16 -10z"/>
<path d="M2980 2380 c0 -5 16 -10 35 -10 19 0 35 5 35 10 0 6 -16 10 -35 10
-19 0 -35 -4 -35 -10z"/>
<path d="M1803 2362 c5 -20 2 -23 -20 -20 -15 2 -28 -3 -31 -10 -3 -10 5 -13
32 -11 25 3 39 -2 49 -15 7 -10 20 -17 29 -15 12 3 7 15 -24 49 -32 35 -39 40
-35 22z"/>
<path d="M5980 2368 c0 -4 9 -8 20 -8 11 0 20 4 20 9 0 6 -9 9 -20 8 -11 -1
-20 -5 -20 -9z"/>
<path d="M6085 2370 c-4 -6 5 -10 19 -10 14 0 26 5 26 10 0 6 -9 10 -19 10
-11 0 -23 -4 -26 -10z"/>
<path d="M3048 2353 c7 -3 16 -2 19 1 4 3 -2 6 -13 5 -11 0 -14 -3 -6 -6z"/>
<path d="M5210 2340 c0 -5 18 -10 40 -10 22 0 40 5 40 10 0 6 -18 10 -40 10
-22 0 -40 -4 -40 -10z"/>
<path d="M7162 2313 c3 -16 15 -18 88 -18 73 0 85 2 88 18 3 15 -6 17 -88 17
-82 0 -91 -2 -88 -17z"/>
<path d="M1744 2289 c-8 -14 -5 -15 39 -23 30 -6 37 -4 37 9 0 8 -3 15 -7 16
-5 0 -20 2 -35 4 -15 2 -30 -1 -34 -6z"/>
<path d="M4648 1810 c-97 -52 -159 -235 -129 -381 19 -90 84 -135 154 -105 19
7 43 25 54 40 l21 26 6 -35 c5 -26 12 -35 26 -35 19 0 20 8 20 140 0 77 0 143
0 148 0 4 -8 7 -17 7 -13 0 -19 -17 -30 -78 -21 -126 -60 -182 -120 -175 -45
5 -67 49 -71 138 -4 87 13 158 55 222 40 60 121 86 146 47 27 -43 -33 -109
-100 -109 -38 0 -47 -11 -29 -35 12 -16 16 -16 67 -2 101 30 148 117 98 181
-17 22 -28 26 -67 26 -26 -1 -63 -9 -84 -20z"/>
<path d="M5333 1470 c0 -25 2 -35 4 -22 2 12 2 32 0 45 -2 12 -4 2 -4 -23z"/>
<path d="M5370 1376 c0 -2 8 -10 18 -17 15 -13 16 -12 3 4 -13 16 -21 21 -21
13z"/>
<path d="M5300 1360 c-9 -6 -10 -10 -3 -10 6 0 15 5 18 10 8 12 4 12 -15 0z"/>
<path d="M5236 1338 c3 -5 10 -6 15 -3 13 9 11 12 -6 12 -8 0 -12 -4 -9 -9z"/>
<path d="M0 400 l0 -400 5000 0 5000 0 0 400 0 400 -5000 0 -5000 0 0 -400z
m2192 123 c23 -20 23 -57 1 -74 -15 -11 -16 -11 -5 1 27 31 11 72 -33 83 -19
4 -19 5 -1 6 11 0 28 -6 38 -16z m-69 -8 c-3 -9 -8 -14 -10 -11 -3 3 -2 9 2
15 9 16 15 13 8 -4z m-1760 -114 c22 -61 43 -108 47 -104 4 4 24 56 45 116 21
59 42 107 47 107 11 0 9 -5 -42 -149 -23 -64 -44 -107 -53 -109 -15 -3 -17 0
-67 143 -15 44 -31 88 -36 99 -5 13 -3 17 6 14 8 -2 32 -55 53 -117z m517 89
c0 -23 4 -30 20 -30 11 0 20 -4 20 -10 0 -5 -10 -10 -21 -10 -20 0 -21 -4 -17
-71 3 -55 8 -74 23 -85 10 -8 16 -16 13 -19 -11 -11 -40 8 -49 32 -12 33 -12
223 1 223 6 0 10 -13 10 -30z m520 15 c19 -10 27 -20 24 -30 -5 -13 -9 -13
-34 0 -36 18 -61 19 -84 2 -28 -21 -9 -45 49 -62 87 -25 108 -74 54 -127 -29
-29 -33 -30 -90 -25 -68 6 -72 8 -64 29 5 13 12 14 40 5 50 -15 100 1 100 33
0 17 -8 28 -24 35 -103 42 -120 60 -107 109 11 43 82 59 136 31z m100 -15 c0
-25 4 -30 25 -30 16 0 25 -6 25 -15 0 -9 -9 -15 -25 -15 -25 0 -26 -1 -23 -62
3 -54 6 -64 26 -73 12 -5 22 -13 22 -18 0 -17 -31 -18 -55 -3 -24 16 -25 20
-25 131 0 96 3 115 15 115 10 0 15 -10 15 -30z m482 -30 l3 -61 35 30 c19 17
44 30 55 31 16 0 12 -7 -20 -40 l-39 -40 42 -60 c40 -57 41 -60 20 -60 -16 0
-32 14 -53 45 -16 25 -33 45 -37 45 -5 0 -8 -20 -8 -45 0 -38 -3 -45 -20 -45
-19 0 -20 7 -20 130 0 122 1 130 20 130 16 0 19 -8 22 -60z m193 28 c1 -20 -2
-24 -11 -17 -8 7 -14 6 -17 -3 -3 -7 -6 2 -6 20 -1 27 3 33 17 30 11 -2 17
-13 17 -30z m-44 -35 c13 -16 12 -17 -3 -4 -17 13 -22 21 -14 21 2 0 10 -8 17
-17z m-1504 -15 c12 -13 23 -36 25 -53 l3 -30 -67 -3 c-75 -3 -85 -15 -47 -53
17 -17 30 -20 65 -16 43 4 59 -5 28 -17 -45 -17 -106 3 -123 41 -44 96 50 202
116 131z m193 12 c17 -11 10 -13 -40 -10 -47 2 -75 -28 -75 -80 0 -55 26 -80
82 -80 27 0 42 -4 38 -10 -9 -15 -78 -12 -102 5 -50 35 -50 135 0 170 24 17
74 20 97 5z m271 -19 c23 -23 29 -38 29 -71 0 -33 -6 -48 -29 -71 -40 -40 -82
-39 -123 1 -28 28 -30 36 -25 78 10 87 89 121 148 63z m79 13 c0 -14 2 -14 22
0 24 17 38 20 38 9 0 -5 -14 -16 -30 -25 -29 -17 -30 -19 -30 -93 0 -43 -4
-75 -10 -75 -6 0 -10 40 -10 100 0 60 4 100 10 100 6 0 10 -7 10 -16z m545 -9
c20 -19 25 -34 25 -75 0 -63 -30 -100 -82 -100 -67 0 -107 62 -87 135 18 66
97 88 144 40z m190 5 c0 -9 -8 -14 -20 -13 -38 5 -63 -7 -74 -35 -24 -57 12
-111 64 -98 27 7 45 -12 24 -25 -50 -32 -129 20 -129 85 0 72 34 107 100 103
24 -1 35 -7 35 -17z m5434 -83 c8 -26 17 -47 21 -47 4 0 13 21 21 47 8 25 20
48 26 50 13 5 -22 -113 -38 -131 -12 -14 -18 -5 -45 69 -16 44 -20 65 -12 63
7 -3 19 -26 27 -51z m638 38 c2 -6 -9 -11 -23 -10 -38 0 -40 -20 -5 -35 69
-28 36 -101 -33 -74 -27 10 -18 22 17 20 38 -1 43 19 8 37 -36 18 -48 42 -31
62 14 17 61 17 67 0z m333 -20 c0 -35 16 -47 26 -20 4 8 13 15 22 15 13 0 13
-3 -2 -19 -16 -18 -16 -21 -1 -50 19 -38 8 -40 -22 -3 l-22 27 -1 -27 c0 -16
-4 -28 -10 -28 -6 0 -10 30 -10 70 0 40 4 70 10 70 6 0 10 -16 10 -35z m580
32 c0 -4 -34 -104 -45 -136 -3 -8 -8 -11 -11 -8 -8 7 38 147 48 147 4 0 8 -2
8 -3z m70 -57 c0 -33 4 -60 10 -60 6 0 10 -4 10 -10 0 -5 -13 -10 -30 -10 -16
0 -30 5 -30 10 0 6 5 10 10 10 6 0 10 20 10 45 0 38 -2 43 -17 38 -16 -6 -16
-4 1 15 29 34 36 27 36 -38z m90 0 c0 -33 4 -60 10 -60 6 0 10 -4 10 -10 0 -5
-13 -10 -30 -10 -16 0 -30 5 -30 10 0 6 5 10 10 10 6 0 10 20 10 45 0 38 -2
43 -17 38 -16 -6 -16 -4 1 15 29 34 36 27 36 -38z m112 43 c39 -35 8 -122 -44
-123 -10 0 -18 5 -18 10 0 6 9 10 20 10 10 0 24 10 31 22 10 18 9 20 -6 15
-24 -10 -55 10 -55 36 0 44 38 61 72 30z m110 0 c39 -35 8 -122 -44 -123 -10
0 -18 5 -18 10 0 6 9 10 20 10 10 0 24 10 31 22 10 18 9 20 -6 15 -24 -10 -55
10 -55 36 0 44 38 61 72 30z m128 12 c0 -6 -60 -127 -66 -134 -2 -2 -7 -2 -10
1 -3 3 6 29 20 57 14 28 26 53 26 56 0 3 -13 5 -30 5 -16 0 -30 5 -30 10 0 6
20 10 45 10 25 0 45 -2 45 -5z m88 -7 c21 -21 13 -45 -25 -77 l-38 -30 43 -1
c23 0 42 -4 42 -10 0 -5 -22 -10 -50 -10 -62 0 -65 15 -14 63 42 40 39 62 -8
53 -26 -5 -29 -4 -18 9 15 18 51 20 68 3z m104 -5 c39 -35 8 -122 -44 -123
-10 0 -18 5 -18 10 0 6 9 10 20 10 10 0 24 10 31 22 10 18 9 20 -6 15 -24 -10
-55 10 -55 36 0 44 38 61 72 30z m128 12 c0 -6 -60 -127 -66 -134 -2 -2 -7 -2
-10 1 -3 3 6 29 20 57 14 28 26 53 26 56 0 3 -13 5 -30 5 -16 0 -30 5 -30 10
0 6 20 10 45 10 25 0 45 -2 45 -5z m-2039 -53 c-15 -5 -14 -59 2 -65 6 -2 9
-7 6 -11 -3 -3 -13 -4 -22 -1 -15 6 -26 62 -19 99 4 17 5 17 24 0 11 -11 15
-20 9 -22z m358 0 c-14 -6 -10 -60 4 -65 6 -2 9 -7 6 -11 -15 -17 -37 8 -41
47 -6 58 0 73 22 50 9 -10 13 -19 9 -21z m-531 6 c23 -23 13 -38 -24 -38 -46
0 -41 -23 7 -30 27 -4 30 -7 16 -13 -28 -11 -44 -9 -61 9 -32 31 -14 84 29 84
12 0 26 -5 33 -12z m117 3 c3 -5 -9 -11 -27 -13 -28 -2 -33 -7 -33 -28 0 -21
5 -26 33 -28 36 -4 34 -22 -3 -22 -28 0 -55 24 -55 50 0 37 67 69 85 41z m169
-7 c21 -20 20 -43 -1 -66 -20 -22 -46 -23 -67 -2 -31 30 -9 84 34 84 10 0 26
-7 34 -16z m86 6 c0 -4 -7 -10 -15 -14 -9 -3 -15 -19 -15 -41 0 -19 -4 -35
-10 -35 -5 0 -10 22 -10 49 0 45 2 49 25 49 14 0 25 -4 25 -8z m274 -6 c31
-30 9 -84 -34 -84 -24 0 -50 26 -50 50 0 24 26 50 50 50 10 0 26 -7 34 -16z
m113 9 c14 -6 10 -9 -17 -13 -29 -4 -35 -9 -35 -30 0 -21 5 -26 33 -28 36 -4
34 -22 -3 -22 -28 0 -55 24 -55 50 0 22 25 50 45 50 7 0 22 -3 32 -7z m250 0
c14 -6 10 -9 -17 -13 -29 -4 -35 -9 -35 -30 0 -21 5 -26 33 -28 36 -4 34 -22
-3 -22 -28 0 -55 24 -55 50 0 22 25 50 45 50 7 0 22 -3 32 -7z m107 -9 c21
-20 20 -43 -1 -66 -20 -22 -46 -23 -67 -2 -31 30 -9 84 34 84 10 0 26 -7 34
-16z m112 5 c8 -7 14 -6 19 1 10 16 42 12 49 -6 10 -25 7 -84 -4 -84 -5 0 -10
18 -10 41 0 33 -3 40 -17 37 -13 -2 -19 -14 -21 -41 -4 -50 -22 -47 -22 4 0
36 -2 40 -22 37 -19 -2 -24 -10 -26 -40 -5 -55 -22 -46 -22 10 0 48 0 49 32
50 18 0 38 -4 44 -9z m-326 -79 c0 -5 -4 -10 -10 -10 -5 0 -10 5 -10 10 0 6 5
10 10 10 6 0 10 -4 10 -10z"/>
<path d="M2150 500 c0 -5 5 -10 10 -10 6 0 10 5 10 10 0 6 -4 10 -10 10 -5 0
-10 -4 -10 -10z"/>
<path d="M536 418 c-28 -39 -21 -48 39 -48 59 0 67 9 45 51 -15 27 -64 25 -84
-3z"/>
<path d="M986 424 c-50 -50 -21 -144 44 -144 48 0 80 50 66 104 -13 53 -75 75
-110 40z"/>
<path d="M1616 408 c-32 -46 -8 -118 39 -118 28 0 55 34 55 70 0 36 -27 70
-55 70 -13 0 -31 -10 -39 -22z"/>
<path d="M9114 375 c-4 -9 -2 -21 4 -27 15 -15 44 -1 40 19 -4 23 -36 29 -44
8z"/>
<path d="M9224 375 c-7 -18 3 -35 21 -35 18 0 26 15 19 34 -8 20 -33 21 -40 1z"/>
<path d="M9544 375 c-7 -18 3 -35 21 -35 18 0 26 15 19 34 -8 20 -33 21 -40 1z"/>
<path d="M7455 340 c-4 -6 5 -10 19 -10 14 0 26 5 26 10 0 6 -9 10 -19 10 -11
0 -23 -4 -26 -10z"/>
<path d="M7734 336 c-10 -26 4 -48 28 -44 17 2 23 10 23 28 0 18 -6 26 -23 28
-13 2 -25 -3 -28 -12z"/>
<path d="M8094 336 c-10 -26 4 -48 28 -44 17 2 23 10 23 28 0 18 -6 26 -23 28
-13 2 -25 -3 -28 -12z"/>
<path d="M8564 336 c-10 -26 4 -48 28 -44 17 2 23 10 23 28 0 18 -6 26 -23 28
-13 2 -25 -3 -28 -12z"/>
</g>
</svg>
